#!OML:ASF H:\Dans Jumps\Project 1\Capture day 1\Session 1\subject.ASF
:FULLY-SPECIFIED
:DEGREES
245
root 0.245913 20.0891 -2.01268 9.78038 2.15824 -2.26635
lowerback 18.5314 0.457648 -2.1549
upperback 6.85167 0.303397 1.58591
thorax -3.03157 0.111624 2.84141
lowerneck -9.66225 -0.507544 -0.0473611
upperneck 18.1999 -0.645316 -0.191075
head 7.16163 -0.326529 -0.111494
rclavicle -7.05686e-015 8.64713e-015
rhumerus -20.6359 -11.0057 -71.908
rradius 38.9974
rwrist 21.2835
rhand -22.3326 -22.0027
rfingers 7.12502
rthumb 4.08763 -51.9433
lclavicle -7.05686e-015 8.64713e-015
lhumerus -21.5765 -14.1953 72.5276
lradius 32.0384
lwrist 36.8107
lhand -23.4743 -7.93732
lfingers 7.12502
lthumb 2.98504 22.0215
rfemur -36.8884 -4.33212 23.2748
rtibia 46.9615
rfoot 7.01318 -7.83231
rtoes 8.59806
lfemur -39.3032 7.15401 -17.0041
ltibia 53.7218
lfoot 8.11629 4.2508
ltoes -4.24721
246
root 0.24607 20.0728 -1.76304 9.85022 2.21261 -2.2097
lowerback 18.5781 0.433727 -2.19443
upperback 6.80877 0.26409 1.56636
thorax -3.09902 0.0936534 2.85164
lowerneck -9.79989 -0.462518 0.058898
upperneck 18.3346 -0.592374 -0.243591
head 7.22938 -0.298706 -0.142192
rclavicle -6.68413e-015 1.3418e-015
rhumerus -21.805 -11.2302 -71.9022
rradius 38.8212
rwrist 21.1775
rhand -22.3695 -22.0955
rfingers 7.12502
rthumb 4.05198 -52.0367
lclavicle -6.68413e-015 1.3418e-015
lhumerus -22.5098 -14.2084 73.087
lradius 31.8282
lwrist 37.5797
lhand -23.3984 -7.88776
lfingers 7.12502
lthumb 3.05836 22.0701
rfemur -37.7226 -4.49454 23.318
rtibia 44.8345
rfoot 6.46457 -7.52118
rtoes 7.7465
lfemur -40.1848 7.42048 -17.3596
ltibia 51.6651
lfoot 6.66604 3.9313
ltoes -5.36259
247
root 0.246346 20.0421 -1.50884 9.90315 2.26716 -2.14286
lowerback 18.5762 0.409357 -2.25114
upperback 6.77098 0.222467 1.55696
thorax -3.1355 0.0738112 2.88272
lowerneck -9.91734 -0.417218 0.130238
upperneck 18.4602 -0.535121 -0.285669
head 7.29093 -0.270297 -0.163179
rclavicle -4.96962e-017 6.95746e-016
rhumerus -22.9938 -11.4086 -71.9081
rradius 38.7237
rwrist 21.0674
rhand -22.4392 -22.2016
rfingers 7.12502
rthumb 3.98466 -52.144
lclavicle -4.96962e-017 6.95746e-016
lhumerus -23.4868 -14.2079 73.6897
lradius 31.689
lwrist 38.6093
lhand -23.2744 -7.78447
lfingers 7.12502
lthumb 3.17813 22.1716
rfemur -38.4639 -4.63139 23.3274
rtibia 42.6185
rfoot 5.98455 -7.09992
rtoes 6.77005
lfemur -40.9331 7.6468 -17.7236
ltibia 49.4115
lfoot 5.33538 3.6543
ltoes -6.64008
248
root 0.246768 19.9969 -1.24913 9.92091 2.31341 -2.06935
lowerback 18.5221 0.386244 -2.32014
upperback 6.74436 0.181481 1.55273
thorax -3.13287 0.0534185 2.92586
lowerneck -10.0016 -0.374955 0.157508
upperneck 18.5911 -0.478861 -0.303715
head 7.34866 -0.243251 -0.168971
rclavicle 3.926e-015 -2.83268e-015
rhumerus -24.1913 -11.5586 -71.934
rradius 38.6897
rwrist 20.9693
rhand -22.5308 -22.3142
rfingers 7.12502
rthumb 3.89624 -52.2583
lclavicle 3.926e-015 -2.83268e-015
lhumerus -24.4996 -14.19 74.3221
lradius 31.5979
lwrist 39.7216
lhand -23.0873 -7.63254
lfingers 7.12502
lthumb 3.35878 22.3207
rfemur -39.089 -4.72902 23.2963
rtibia 40.3411
rfoot 5.55269 -6.55153
rtoes 5.69596
lfemur -41.5165 7.84076 -18.0827
ltibia 46.9845
lfoot 4.12993 3.39978
ltoes -7.95938
249
root 0.247366 19.9372 -0.9829 9.89161 2.34531 -1.98714
lowerback 18.4143 0.366023 -2.39685
upperback 6.73002 0.143704 1.54316
thorax -3.08932 0.03379 2.9666
lowerneck -10.0435 -0.339523 0.154718
upperneck 18.7399 -0.431316 -0.2968
head 7.40488 -0.220187 -0.162297
rclavicle 6.06293e-015 3.67752e-015
rhumerus -25.3923 -11.7026 -71.9892
rradius 38.7037
rwrist 20.8835
rhand -22.6214 -22.4276
rfingers 7.12502
rthumb 3.80869 -52.3733
lclavicle 6.06293e-015 3.67752e-015
lhumerus -25.5433 -14.1577 74.9726
lradius 31.5252
lwrist 40.7257
lhand -22.8733 -7.48314
lfingers 7.12502
lthumb 3.56544 22.4668
rfemur -39.5825 -4.78065 23.2147
rtibia 38.0347
rfoot 5.11621 -5.8744
rtoes 4.58046
lfemur -41.9152 8.00618 -18.4287
ltibia 44.4153
lfoot 3.02046 3.14169
ltoes -9.30407
250
root 0.248507 19.8624 -0.708923 9.80655 2.35212 -1.90145
lowerback 18.2407 0.348677 -2.46939
upperback 6.73156 0.111169 1.52036
thorax -2.99483 0.0158407 2.98917
lowerneck -10.0438 -0.311923 0.138149
upperneck 18.9261 -0.394675 -0.275649
head 7.46604 -0.201968 -0.149611
rclavicle 8.19987e-016 6.65929e-015
rhumerus -26.5716 -11.8523 -72.0834
rradius 38.7366
rwrist 20.8003
rhand -22.7116 -22.5212
rfingers 7.12502
rthumb 3.72164 -52.4685
lclavicle 8.19987e-016 6.65929e-015
lhumerus -26.5913 -14.1355 75.6262
lradius 31.4331
lwrist 41.5018
lhand -22.6725 -7.3574
lfingers 7.12502
lthumb 3.75941 22.5892
rfemur -39.9355 -4.78187 23.0839
rtibia 35.7388
rfoot 4.58945 -5.07688
rtoes 3.48875
lfemur -42.1151 8.15172 -18.7458
ltibia 41.748
lfoot 1.94061 2.87088
ltoes -10.8701
251
root 0.250549 19.7724 -0.426746 9.66315 2.32883 -1.82401
lowerback 17.9979 0.334203 -2.5182
upperback 6.74579 0.0872542 1.48113
thorax -2.8513 0.00150152 2.97836
lowerneck -10.0002 -0.295955 0.121027
upperneck 19.1569 -0.375926 -0.243588
head 7.53403 -0.191272 -0.134866
rclavicle 6.06293e-015 -2.78299e-015
rhumerus -27.7112 -12.0208 -72.2157
rradius 38.7633
rwrist 20.7048
rhand -22.7846 -22.6026
rfingers 7.12502
rthumb 3.65112 -52.5511
lclavicle 6.06293e-015 -2.78299e-015
lhumerus -27.6237 -14.1092 76.2731
lradius 31.2952
lwrist 41.9478
lhand -22.5001 -7.24543
lfingers 7.12502
lthumb 3.92587 22.6982
rfemur -40.1503 -4.73424 22.9203
rtibia 33.4969
rfoot 3.89555 -4.18205
rtoes 2.39797
lfemur -42.1236 8.26786 -19.0047
ltibia 39.043
lfoot 0.856923 2.60823
ltoes -12.681
252
root 0.254034 19.667 -0.135858 9.4545 2.27543 -1.7587
lowerback 17.6815 0.320382 -2.52709
upperback 6.7693 0.0716467 1.42074
thorax -2.66021 -0.00900796 2.92013
lowerneck -9.90249 -0.288654 0.130965
upperneck 19.4433 -0.371819 -0.221795
head 7.6106 -0.186477 -0.129313
rclavicle -1.73937e-015 3.13086e-015
rhumerus -28.7943 -12.216 -72.3855
rradius 38.7603
rwrist 20.5881
rhand -22.8484 -22.6616
rfingers 7.12502
rthumb 3.58949 -52.6111
lclavicle -1.73937e-015 3.13086e-015
lhumerus -28.6209 -14.0875 76.8999
lradius 31.095
lwrist 42.0355
lhand -22.3853 -7.1384
lfingers 7.12502
lthumb 4.03668 22.8031
rfemur -40.2227 -4.65044 22.7336
rtibia 31.354
rfoot 2.96685 -3.22921
rtoes 1.37398
lfemur -41.9447 8.34456 -19.1902
ltibia 36.3719
lfoot -0.255017 2.3828
ltoes -14.8519
253
root 0.259181 19.546 0.163237 9.17609 2.19225 -1.71763
lowerback 17.2993 0.304556 -2.48572
upperback 6.80247 0.0624205 1.34575
thorax -2.42493 -0.0163529 2.81626
lowerneck -9.77659 -0.285232 0.165756
upperneck 19.8037 -0.374868 -0.212969
head 7.70659 -0.184361 -0.132898
rclavicle 4.62174e-015 7.95139e-016
rhumerus -29.7884 -12.4256 -72.5875
rradius 38.7144
rwrist 20.4425
rhand -22.9051 -22.6974
rfingers 7.12502
rthumb 3.5347 -52.6478
lclavicle 4.62174e-015 7.95139e-016
lhumerus -29.555 -14.041 77.4918
lradius 30.8298
lwrist 41.7938
lhand -22.3088 -7.06398
lfingers 7.12502
lthumb 4.11059 22.8761
rfemur -40.1577 -4.53114 22.5436
rtibia 29.3523
rfoot 1.78224 -2.26099
rtoes 0.391306
lfemur -41.5997 8.38587 -19.2872
ltibia 33.815
lfoot -1.36216 2.22132
ltoes -17.2525
254
root 0.266369 19.4105 0.469825 8.82007 2.08563 -1.69996
lowerback 16.8585 0.283223 -2.39306
upperback 6.84232 0.054693 1.26247
thorax -2.15203 -0.0225749 2.67415
lowerneck -9.62572 -0.278056 0.199779
upperneck 20.2503 -0.373608 -0.199438
head 7.82695 -0.179662 -0.134509
rclavicle 3.77691e-015 6.36111e-015
rhumerus -30.6862 -12.6264 -72.809
rradius 38.6307
rwrist 20.2777
rhand -22.9551 -22.707
rfingers 7.12502
rthumb 3.48643 -52.6582
lclavicle 3.77691e-015 6.36111e-015
lhumerus -30.4263 -13.9299 78.0416
lradius 30.5193
lwrist 41.2818
lhand -22.2776 -7.03561
lfingers 7.12502
lthumb 4.14066 22.9039
rfemur -39.9497 -4.38171 22.3507
rtibia 27.5253
rfoot 0.377981 -1.33337
rtoes -0.503601
lfemur -41.1017 8.37907 -19.297
ltibia 31.4522
lfoot -2.42239 2.15642
ltoes -19.6036
255
root 0.27572 19.2616 0.782406 8.37902 1.9652 -1.68952
lowerback 16.3796 0.254293 -2.26369
upperback 6.88571 0.0424668 1.17322
thorax -1.85486 -0.0303383 2.50595
lowerneck -9.45097 -0.265307 0.227251
upperneck 20.7743 -0.364115 -0.183416
head 7.96927 -0.171159 -0.133497
rclavicle 8.94531e-016 -9.64106e-015
rhumerus -31.4812 -12.8017 -73.0396
rradius 38.5155
rwrist 20.1211
rhand -22.9976 -22.6883
rfingers 7.12502
rthumb 3.44538 -52.6402
lclavicle 8.94531e-016 -9.64106e-015
lhumerus -31.2304 -13.7176 78.5388
lradius 30.1857
lwrist 40.602
lhand -22.269 -7.04597
lfingers 7.12502
lthumb 4.14899 22.8934
rfemur -39.5957 -4.20809 22.1364
rtibia 25.8988
rfoot -1.16013 -0.509769
rtoes -1.26629
lfemur -40.4692 8.32335 -19.251
ltibia 29.3587
lfoot -3.40281 2.18712
ltoes -21.6721
